<mxfile host="app.diagrams.net" modified="2024-11-12T13:06:34.639Z" agent="Mozilla/5.0 (Windows NT 10.0; Win64; x64) AppleWebKit/537.36 (KHTML, like Gecko) Chrome/130.0.0.0 Safari/537.36" version="24.3.0" etag="uayjvuXMtkVXBpJAufis" type="github">
  <diagram name="Page-1" id="E1WAZ51t3d_m_6WlQB4I">
    <mxGraphModel>
      <root>
        <mxCell id="0" />
        <mxCell id="1" parent="0" />
      </root>
    </mxGraphModel>
  </diagram>
</mxfile>
